<svg xmlns="http://www.w3.org/2000/svg" width="32" height="32" viewBox="0 0 32 32"><path fill="#5e438f" d="m7.144 25.58l-4.632-3.477a1.16 1.16 0 0 1-.462-.924V10.74a1.16 1.16 0 0 1 .462-.924L7.144 6.34a1.04 1.04 0 0 0-.312.924v17.392a1.05 1.05 0 0 0 .312.924"/><path fill="#7252aa" d="M29.352 6.882a1.155 1.155 0 0 0-1.443.127l-.081.08L8.726 25.406l-.081.081a1.155 1.155 0 0 1-1.501.092l-4.632-3.476a1.155 1.155 0 0 0 1.571-.173c5.601-6.48 11.18-12.981 16.77-19.472c.23-.265.542-.404.888-.404c.231 0 .45.058.636.185z"/><path fill="#ae7fe2" d="M29.364 25.037L22.4 29.679a1.17 1.17 0 0 1-1.525-.208L4.095 9.988a1.155 1.155 0 0 0-1.583-.173l4.643-3.476a1.16 1.16 0 0 1 .693-.231c.3 0 .589.115.808.323l.07.081l19.102 18.317l.08.08a1.155 1.155 0 0 0 1.444.128z"/><path fill="#d59dff" d="M29.872 7.84v16.226a1.16 1.16 0 0 1-.52.97L22.4 29.68a1.16 1.16 0 0 0 .508-.97V3.21a1.18 1.18 0 0 0-.531-.97l6.975 4.643a1.17 1.17 0 0 1 .52.958"/><path fill="#efeef0" d="m30.089 28.175l-8.744-.001v-1.915l-1.915-.002v-8.741l1.914.001l-.002-1.913h8.745v1.915h1.914l-.002 3.827H32v4.915h-1.912z"/><path fill="#efeef0" d="M15.527 32A7.16 7.16 0 0 1 10 29.758a8.1 8.1 0 0 1-2-5.683a8.56 8.56 0 0 1 2.213-6.063A7.6 7.6 0 0 1 16 15.6a9.8 9.8 0 0 1 3.558.581l.956.372v6.56l-2.3-1.458a3.6 3.6 0 0 0-1.989-.544a2.12 2.12 0 0 0-1.672.662a2.96 2.96 0 0 0-.658 2.091a2.88 2.88 0 0 0 .615 2a1.9 1.9 0 0 0 1.562.614a3.97 3.97 0 0 0 2.153-.6l2.292-1.426v6.28l-.815.419a9.14 9.14 0 0 1-4.175.849"/><path fill="#368832" d="M22.844 17.1h1.915v1.915h1.914V17.1h1.914v1.915H30.5v1.914h-1.913v1.913H30.5v1.918h-1.913v1.914h-1.914v-1.912h-1.912v1.914h-1.916v-1.915H20.93v-1.917h1.915v-1.909H20.93v-1.918h1.915zm1.915 5.744h1.914v-1.912h-1.914zm-5.742 6.966a7.65 7.65 0 0 1-3.49.686a5.7 5.7 0 0 1-4.417-1.752a6.63 6.63 0 0 1-1.61-4.668a7.08 7.08 0 0 1 1.809-5.039A6.14 6.14 0 0 1 16 17.1a8.3 8.3 0 0 1 3.013.479v2.809a5.1 5.1 0 0 0-2.792-.777a3.6 3.6 0 0 0-2.775 1.147a4.4 4.4 0 0 0-1.055 3.107a4.33 4.33 0 0 0 1 2.994a3.41 3.41 0 0 0 2.681 1.115a5.47 5.47 0 0 0 2.945-.831Z"/></svg>
