<svg xmlns="http://www.w3.org/2000/svg" width="32" height="32" viewBox="0 0 32 32"><defs><linearGradient id="SVGsG9qJbtn"><stop offset="0" stop-color="#de3641"/><stop offset="1" stop-color="#b13138"/></linearGradient><linearGradient id="SVGBu3X2bSJ"><stop offset="0" stop-color="#de3641"/><stop offset="1" stop-color="#de3641" stop-opacity="0"/></linearGradient><clipPath id="SVGqpIVPcCN"><path fill="#fff" d="M0 0h223v236H0z"/></clipPath></defs><g clip-path="url(#SVGqpIVPcCN)" transform="translate(2.76 1.986)scale(.11923)"><path fill="url(#SVGsG9qJbtn)" d="m222.08 39.192l-8.019 125.92L137.39-.008zm-53.105 162.82l-57.933 33.056l-57.934-33.056l11.783-28.556h92.301zm-57.933-139.34l30.357 73.803H80.684zm-103.1 102.44L.005 39.192L84.695 0z"/><path fill="url(#SVGBu3X2bSJ)" d="m222.08 39.192l-8.019 125.92L137.39-.008zm-53.105 162.82l-57.933 33.056l-57.934-33.056l11.783-28.556h92.301zm-57.933-139.34l30.357 73.803H80.684zm-103.1 102.44L.005 39.192L84.695 0z"/></g><path fill="#1572b6" d="m18.59 28.34l-1.12-12.6h12.35l-1.13 12.6l-5.05 1.4z"/><path fill="#33a9dc" d="m23.64 28.67l4.09-1.14l.96-10.76h-5.05z"/><path fill="#fff" d="M23.64 21.33h2.05l.14-1.58h-2.19V18.2h3.88l-.04.42l-.38 4.26h-3.46z"/><path fill="#ebebeb" d="m23.65 25.35l-1.72-.47l-.11-1.23h-1.56l.22 2.43l3.16.88l.01-.01z"/><path fill="#fff" d="m25.56 22.81l-.19 2.07l-1.72.47v1.61l3.17-.88l.02-.26l.27-3.01z"/><path fill="#ebebeb" d="M23.65 18.2v1.55h-3.73l-.03-.35l-.08-.78l-.03-.42zm-.01 3.13v1.55h-1.7l-.03-.35l-.07-.78l-.03-.42z"/></svg>
