<svg xmlns="http://www.w3.org/2000/svg" width="32" height="32" viewBox="0 0 32 32"><g fill="none"><g stroke-width=".5"><path fill="url(#SVGHN0Ppbkr)" d="M25 22h2a1 1 0 0 1 1 1v3a1 1 0 0 1-1 1h-2z"/><path fill="url(#SVGCRx8QdSa)" d="M25 16h2a1 1 0 0 1 1 1v3a1 1 0 0 1-1 1h-2z"/><path fill="url(#SVGAue8Qc5U)" d="M25 10h2a1 1 0 0 1 1 1v3a1 1 0 0 1-1 1h-2z"/><path fill="url(#SVGC9reIeQM)" d="M25 4h2a1 1 0 0 1 1 1v3a1 1 0 0 1-1 1h-2z"/><path fill="url(#SVGdalRFbBc)" d="M4 22v6c0 1.1.9 2 2 2h18c1.1 0 2-.9 2-2v-6z"/></g><path stroke="url(#SVG7zfGEems)" d="M4.5 28v-5.5h21V28c0 .824-.676 1.5-1.5 1.5H6c-.824 0-1.5-.676-1.5-1.5z"/><path fill="url(#SVG2vJ0lezZ)" d="M26 5v19c0 1.1-.9 2-2 2H6c-1.1 0-2 .9-2 2V5c0-1.66 1.34-3 3-3h16c1.66 0 3 1.34 3 3"/><rect width="13.5" height="4.5" x="8.5" y="6" fill="#fff" rx="1"/><defs><linearGradient id="SVGHN0Ppbkr" x1="60" x2="56" y1="52.5" y2="52.5" gradientTransform="matrix(.5 0 0 .5 -3 -2)" gradientUnits="userSpaceOnUse"><stop offset="0" stop-color="#0078d4"/><stop offset="1" stop-color="#0050ac"/></linearGradient><linearGradient id="SVGCRx8QdSa" x1="60" x2="56" y1="41" y2="41" gradientTransform="matrix(.5 0 0 .5 -3 -2)" gradientUnits="userSpaceOnUse"><stop offset="0" stop-color="#107c10"/><stop offset="1" stop-color="#005400"/></linearGradient><linearGradient id="SVGAue8Qc5U" x1="60" x2="56" y1="28.5" y2="28.5" gradientTransform="matrix(.5 0 0 .5 -3 -2)" gradientUnits="userSpaceOnUse"><stop offset="0" stop-color="#e25a01"/><stop offset="1" stop-color="#ba3200"/></linearGradient><linearGradient id="SVGC9reIeQM" x1="60" x2="56" y1="17" y2="17" gradientTransform="matrix(.5 0 0 .5 -3 -2)" gradientUnits="userSpaceOnUse"><stop offset="0" stop-color="#d70a0a"/><stop offset=".728" stop-color="#a50000"/></linearGradient><linearGradient id="SVGdalRFbBc" x1="48" x2="41.37" y1="48" y2="51.04" gradientTransform="matrix(.5 0 0 .5 -3 -2)" gradientUnits="userSpaceOnUse"><stop offset="0" stop-color="#d7d4d4"/><stop offset="1" stop-color="#eae8e8"/></linearGradient><linearGradient id="SVG7zfGEems" x1="36" x2="36" y1="48" y2="64" gradientTransform="matrix(.5 0 0 .5 -3 -2)" gradientUnits="userSpaceOnUse"><stop offset="0" stop-opacity=".35"/><stop offset="1" stop-opacity=".3"/></linearGradient><linearGradient id="SVG2vJ0lezZ" x1="14" x2="58" y1="3.5" y2="65" gradientTransform="matrix(.5 0 0 .5 -3 -2)" gradientUnits="userSpaceOnUse"><stop offset="0" stop-color="#a35cff"/><stop offset="1" stop-color="#4931de"/></linearGradient></defs></g></svg>
