<svg xmlns="http://www.w3.org/2000/svg" width="32" height="32" viewBox="0 0 32 32"><defs><linearGradient id="SVG5rtOJcHW" x1="4" x2="28" y1="31" y2="1" gradientUnits="userSpaceOnUse"><stop offset="0" stop-color="#083fa6"/><stop offset="1" stop-color="#2dcbfd"/></linearGradient></defs><g fill-rule="evenodd" stroke-linecap="square"><path fill="url(#SVG5rtOJcHW)" d="M7 0C4.784 0 3 1.784 3 4v24c0 2.216 1.784 4 4 4h18c2.216 0 4-1.784 4-4V12L17 0zm13 0l9 9V0z" transform="translate(2 2)scale(.875)"/><path fill-opacity=".199" d="M4.625 25.625v.875c0 1.939 1.561 3.5 3.5 3.5h15.75c1.939 0 3.5-1.561 3.5-3.5v-.875c0 1.939-1.561 3.5-3.5 3.5H8.125a3.49 3.49 0 0 1-3.5-3.5"/><path fill-opacity=".201" d="M19.5 2h1.225l6.65 6.65v1.225z"/><g fill="#fafafa" transform="translate(2 2)scale(.875)"><rect width="7" height="1" x="8" y="13" ry=".5"/><rect width="7" height="1" x="8" y="15" ry=".5"/><rect width="7" height="1" x="8" y="17" ry=".5"/><rect width="16" height="1" x="8" y="20" ry=".5"/><rect width="16" height="1" x="8" y="22" ry=".5"/><rect width="7" height="1" x="8" y="24" ry=".5"/></g><path fill="#9ae9f9" d="M17.75 13.375a.873.873 0 0 0-.875.875v2.625c0 .485.39.875.875.875h4.375c.485 0 .875-.39.875-.875V14.25a.873.873 0 0 0-.875-.875zm3.938.875a.44.44 0 0 1 .437.438a.44.44 0 0 1-.437.437a.44.44 0 0 1-.438-.437a.44.44 0 0 1 .438-.438m-2.77.463a.54.54 0 0 1 .326.156l2.006 2.006h-3.5l.598-1.794a.54.54 0 0 1 .57-.368"/></g></svg>
