<svg xmlns="http://www.w3.org/2000/svg" width="32" height="32" viewBox="0 0 32 32"><defs><path id="SVGI4zKqe1F" fill="none" d="M0 0h45.72v26.28H0z"/><path id="SVGBkqrYbhp" fill="#231f20" d="M45.72 13.139L22.926 0v9.97H0v6.339h22.926v9.971z"/></defs><path fill="#8c6823" d="M27.347 5.526h-9.3l-2.1 4.2h-11.7v16.8h25.2v-21zm0 4.2h-8.2l1.1-2.1h7.1z"/><path fill="#977753" d="m20.665 29.567l-.004-.313l8.84-3.77l1.395.198l-.008.263l-8.853 4.332z"/><path fill="#7a552c" d="m20.67 29.258l8.832-4.02l1.402.453l-8.869 4.285z"/><path fill="#886947" d="m20.663 28.275l1.375.742v.969l-1.375-.743z"/><path fill="#9a7246" d="m30.842 24.742l-1.04.524v.968l1.04-.524z"/><path fill="#694a27" d="m24.713 26.305l1.374.743v.969l-1.374-.743z"/><path fill="#9a7246" d="m27.127 26.525l-1.04.524v.968l1.04-.523z"/><path fill="#715a40" d="m16.877 27.672l-.005-.274l8.84-3.771l1.395.197l-.009.263l-8.852 4.296z"/><path fill="#886947" d="m16.875 26.417l1.374.743v.968l-1.375-.743z"/><path fill="#6d471e" d="m19.29 26.636l-1.041.524v.968l1.04-.524z"/><path fill="#7a5f41" d="m13.274 25.852l-.005-.239l8.841-3.77l1.394.198l-.008.262l-8.853 4.26z"/><path fill="#886947" d="m13.271 24.634l1.375.743v.969l-1.375-.743z"/><path fill="#6d471e" d="m15.686 24.853l-1.04.524v.969l1.04-.524z"/><path fill="#977753" d="m13.199 24.85l-.005-.194s1.737-.061 1.155.079c.72-.453 7.63-3.116 7.63-3.116l8.866 3.037l.042.191l-8.852 4.166z"/><path fill="#c69c6d" d="m13.168 24.67l8.869-3.09l8.866 3.09l-8.868 4.117z"/><path fill="#e5ac3d" stroke="#73561f" stroke-miterlimit="10" stroke-width=".036935459999999996" d="m22.11 13.918l-4.241-1.697v5.556l4.24 1.725z"/><path fill="#e3b04e" stroke="#73561f" stroke-miterlimit="10" stroke-width=".036935459999999996" d="m22.081 13.94l4.183-1.665l-4.204-1.73l-4.2 1.687z"/><g transform="translate(10.911 9.376)scale(.68399) matrix(0 -.029 .022 .013 10.56 6.25)"><use href="#SVGI4zKqe1F"/><use href="#SVGBkqrYbhp"/></g><g stroke="#73561f" stroke-miterlimit="10" stroke-width=".054"><path fill="#e5ac3d" d="m26.307 21.078l4.24-1.697v5.001l-4.24 1.969z" stroke-width=".036935459999999996"/><path fill="#e5ac3d" d="m26.3 15.624l4.242-1.652v5.407L26.3 21.095z" stroke-width=".036935459999999996"/><path fill="#e3b04e" d="m26.255 15.613l-4.127-1.752l4.147-1.555l4.24 1.641z" stroke-width=".036935459999999996"/><path fill="#e5ac3d" d="m17.8 21.067l-4.24-1.636v5.044l4.24 1.947z" stroke-width=".036935459999999996"/><path fill="#e3b04e" d="m17.79 21.102l4.24-1.653l-4.24-1.686l-4.242 1.642z" stroke-width=".036935459999999996"/><path fill="none" d="m15.666 20.24l4.238-1.688" stroke-width=".036935459999999996"/></g><g fill="#e5ac3d" stroke="#73561f" stroke-miterlimit="10" stroke-width=".054"><path d="m22.06 22.822l-4.24-1.685v5.277l4.24 2.022z" stroke-width=".036935459999999996"/><path d="m22.026 22.87l4.278-1.697v5.24l-4.278 2.023z" stroke-width=".036935459999999996"/><path d="m22.035 17.274l4.241-1.673v5.581l-4.24 1.7zm0-.013l-4.24-1.697v5.556l4.24 1.725z" stroke-width=".036935459999999996"/></g><path fill="#e3b04e" stroke="#73561f" stroke-miterlimit="10" stroke-width=".036935459999999996" d="m22.044 17.247l4.22-1.665l-4.24-1.731l-4.242 1.687z"/><path fill="none" stroke="#73561f" stroke-miterlimit="10" stroke-width=".036935459999999996" d="m19.68 16.318l4.238-1.688m-4.09-1.581l4.238-1.687m.396 1.63l4.32 1.673"/><g fill="#fff" stroke="#73561f" stroke-miterlimit="10"><path stroke-width=".03214753" d="m20.174 16.539l4.238-1.687l-.983-.418l-4.268 1.7zm.186-3.269l4.238-1.687l-.983-.418l-4.268 1.7zm-2.548 6.563l-.018-.802l-2.597 1.034l1.013.405z" opacity=".3"/><path stroke-width=".028727580000000003" d="m28.273 14.825l.918-.358l-4.262-1.651l-.915.359z" opacity=".3"/></g><path fill="none" d="m15.529 21.322l-.072-.028l.037.058zm.276.107l-.088-.035l.043.074z"/><path fill="#fff" stroke="#73561f" stroke-miterlimit="10" stroke-width=".04582733" d="m16.097 21.543l.094.036v-1.126l-.994-.386v1.125l.137-.093l.123.195l.072.028l.094-.084l.094.156l.088.035l.13-.113z" opacity=".3"/><path fill="none" d="m19.689 14.115l-.071-.028l.036.058zm.277.108l-.09-.035l.045.074z"/><path fill="#fff" stroke="#73561f" stroke-miterlimit="10" stroke-width=".04582733" d="m20.258 14.336l.093.037v-1.126l-.994-.387v1.125l.138-.093l.123.195l.07.028l.095-.083l.094.156l.089.035l.128-.114z" opacity=".3"/><path fill="none" d="m19.525 17.405l-.071-.027l.037.057zm.277.108l-.089-.034l.044.073z"/><path fill="#fff" stroke="#73561f" stroke-miterlimit="10" stroke-width=".04582733" d="m20.094 17.626l.093.037v-1.126l-.994-.386v1.125l.138-.093l.123.195l.071.027l.095-.082l.093.156l.089.034l.129-.114z" opacity=".3"/><path fill="none" d="m19.864 20.842l.07.027l-.036-.057zm-.279-.104l.09.034l-.045-.073z"/><path fill="#fff" stroke="#73561f" stroke-miterlimit="10" stroke-width=".04582733" d="m19.292 20.629l-.094-.035l.016 1.125l1 .373l-.016-1.125l-.137.095l-.126-.193l-.071-.027l-.093.085l-.096-.155l-.09-.034l-.127.116z" opacity=".3"/><path fill="none" d="m15.89 24.371l.07.027l-.037-.058zm-.28-.103l.09.033l-.045-.073z"/><path fill="#fff" stroke="#73561f" stroke-miterlimit="10" stroke-width=".04582733" d="m15.317 24.158l-.094-.035l.016 1.126l.952.437l.032-1.19l-.137.095l-.126-.193l-.07-.027l-.095.084l-.095-.154l-.09-.033l-.127.115z" opacity=".3"/><path fill="none" d="m28.566 19.046l-.071.028l.036-.059zm.276-.108l-.088.035l.044-.074z"/><path fill="#fff" stroke="#73561f" stroke-miterlimit="10" stroke-width=".04582733" d="m29.135 18.825l.093-.037v1.126l-.994.387v-1.125l.138.093l.123-.195l.071-.028l.095.083l.093-.156l.088-.035l.13.114z" opacity=".3"/><path fill="none" d="m28.905 15.72l.07-.026l-.037.057zm-.279.104l.09-.033l-.046.073z"/><path fill="#fff" stroke="#73561f" stroke-miterlimit="10" stroke-width=".04582733" d="m28.333 15.933l-.094.036l.015-1.126l1-.373l-.016 1.126l-.136-.095l-.126.193l-.071.027l-.094-.085l-.096.155l-.089.033l-.127-.115z" opacity=".3"/><path fill="none" d="m24.234 26.204l-.07.027l.036-.058zm.277-.108l-.09.034l.045-.073z"/><path fill="#fff" stroke="#73561f" stroke-miterlimit="10" stroke-width=".04582733" d="m24.803 25.983l.094-.037v1.126l-.995.46v-1.2l.138.094l.123-.195l.07-.027l.096.082l.093-.156l.089-.034l.129.114z" opacity=".3"/><path fill="none" d="m24.572 22.99l.072-.027l-.037.057zm-.277.103l.089-.033l-.046.073z"/><path fill="#fff" stroke="#73561f" stroke-miterlimit="10" stroke-width=".04582733" d="m24.001 23.203l-.094.035l.016-1.126l.999-.372l-.016 1.125l-.136-.095l-.126.193l-.072.026l-.093-.084l-.095.155l-.09.033l-.127-.115z" opacity=".3"/><path d="m25.566 18.603l-.117-.027v-.035l.1-.142a.07.07 0 0 0 .013-.044a.024.024 0 0 0-.025-.02l-.13.003l-.01-.03l.08-.152a.05.05 0 0 0 .006-.043a.03.03 0 0 0-.031-.013l-.137.035l-.016-.025l.057-.157a.04.04 0 0 0 0-.04a.03.03 0 0 0-.035-.004l-.136.065l-.022-.019l.032-.155a.03.03 0 0 0-.011-.036a.034.034 0 0 0-.038.005l-.137.091l-.027-.011l.005-.147a.03.03 0 0 0-.018-.03a.05.05 0 0 0-.04.014l-.125.113l-.031-.004l-.023-.137a.025.025 0 0 0-.024-.021a.06.06 0 0 0-.04.02l-.112.133l-.033.004l-.049-.115a.025.025 0 0 0-.03-.014a.07.07 0 0 0-.037.028l-.095.147l-.034.01l-.073-.092a.03.03 0 0 0-.034-.005a.07.07 0 0 0-.035.035l-.073.154l-.034.018l-.094-.068a.03.03 0 0 0-.038 0a.07.07 0 0 0-.03.04l-.049.155l-.033.025l-.112-.037a.04.04 0 0 0-.04.012a.07.07 0 0 0-.024.043l-.023.152l-.03.03l-.126-.007a.06.06 0 0 0-.04.02a.07.07 0 0 0-.018.045l.005.143l-.026.034l-.137.024a.07.07 0 0 0-.039.027a.06.06 0 0 0-.01.045l.03.128l-.021.037l-.137.054a.07.07 0 0 0-.035.033a.05.05 0 0 0 0 .042l.058.108l-.017.039l-.136.081a.07.07 0 0 0-.031.04a.04.04 0 0 0 .005.038l.08.084l-.01.04l-.13.105a.07.07 0 0 0-.025.043a.03.03 0 0 0 .013.034l.101.056v.038l-.118.126a.07.07 0 0 0-.019.045a.03.03 0 0 0 .02.028l.117.026v.035l-.101.143a.07.07 0 0 0-.013.044a.024.024 0 0 0 .026.02l.13-.004l.01.031l-.081.152a.05.05 0 0 0-.005.043a.03.03 0 0 0 .03.012l.137-.034l.017.025l-.058.157a.04.04 0 0 0 0 .04a.03.03 0 0 0 .035.003l.137-.064l.022.018l-.032.156a.03.03 0 0 0 .011.035a.034.034 0 0 0 .039-.005l.137-.091l.026.011l-.005.148a.03.03 0 0 0 .018.029a.05.05 0 0 0 .04-.014l.126-.113l.03.004l.023.137a.024.024 0 0 0 .025.022a.06.06 0 0 0 .039-.022l.112-.132l.033-.004l.049.115a.025.025 0 0 0 .03.014a.07.07 0 0 0 .038-.029l.094-.146l.034-.011l.073.092a.03.03 0 0 0 .035.006a.07.07 0 0 0 .034-.035l.073-.155l.034-.018l.095.068a.03.03 0 0 0 .037 0a.07.07 0 0 0 .03-.04l.049-.156l.033-.024l.113.037a.04.04 0 0 0 .039-.012a.07.07 0 0 0 .024-.043l.023-.153l.03-.03l.126.007a.06.06 0 0 0 .04-.02a.07.07 0 0 0 .018-.044l-.005-.143l.027-.034l.137-.024a.07.07 0 0 0 .038-.028a.06.06 0 0 0 .01-.044l-.03-.128l.01-.036l.138-.054a.07.07 0 0 0 .035-.034a.05.05 0 0 0 0-.042l-.058-.107l.017-.04l.136-.08a.07.07 0 0 0 .031-.04a.04.04 0 0 0-.005-.039l-.08-.083l.01-.04l.13-.106a.07.07 0 0 0 .024-.042a.03.03 0 0 0-.012-.035l-.101-.056v-.037l.118-.127a.07.07 0 0 0 .019-.044a.03.03 0 0 0-.01-.027m-.788 1.36c-.046.009-.074-.026-.065-.077a.14.14 0 0 1 .1-.11c.045-.008.073.026.064.077a.14.14 0 0 1-.1.11m-.04-.267a.13.13 0 0 0-.09.1l-.042.222a1.6 1.6 0 0 1-.423.274a.96.96 0 0 1-.433.084l-.041-.187c-.01-.039-.05-.049-.09-.022l-.173.112a1 1 0 0 1-.089-.073l.839-.356q.015-.005.016-.018v-.311q-.001-.012-.016-.004l-.246.104v-.197l.266-.113a.11.11 0 0 1 .163.079c.01.039.034.17.05.205s.08.117.148.089l.418-.178l.015-.008a2 2 0 0 1-.095.157zm-1.163.773c-.045.03-.09.018-.099-.025a.14.14 0 0 1 .065-.132c.045-.03.09-.017.099.026a.14.14 0 0 1-.062.13zm-.318-1.217a.12.12 0 0 1-.042.137c-.042.038-.092.038-.11 0a.12.12 0 0 1 .042-.137c.045-.035.095-.036.113 0zm-.097.285l.18-.16a.11.11 0 0 0 .038-.122l-.037-.072l.146-.062v.684l-.293.125a1 1 0 0 1-.04-.278c.001-.036.001-.076.008-.115zm.787-.402v-.205l.347-.147c.017-.008.126-.032.126.053c0 .068-.083.13-.152.16l-.321.136zm1.259-.353v.08l-.105.045a.03.03 0 0 0-.015.025v.05a.21.21 0 0 1-.12.206c-.054.03-.114.024-.121-.007c-.032-.173-.084-.19-.168-.224a.7.7 0 0 0 .211-.395a.205.205 0 0 0-.16-.215a.4.4 0 0 0-.221.017l-1.089.463a1.85 1.85 0 0 1 .575-.583l.128.087c.029.02.078 0 .108-.043l.143-.205a.64.64 0 0 1 .703.225l-.099.274c-.017.047 0 .087.04.089l.189.007q.002.05.002.104zm-1.088-.714c.033-.047.086-.068.117-.047s.031.077 0 .125s-.086.069-.117.047s-.03-.078.003-.126zm.976.41a.13.13 0 0 1 .11-.09c.042 0 .06.045.042.097a.13.13 0 0 1-.11.09c-.039-.003-.058-.047-.04-.102z" opacity=".55"/><path d="m21.386 25.396l-.13-.134l-.004-.039l.112-.058a.03.03 0 0 0 .013-.035a.07.07 0 0 0-.028-.045l-.142-.111l-.01-.041l.088-.087a.04.04 0 0 0 .005-.041a.1.1 0 0 0-.034-.041l-.15-.086l-.019-.041l.063-.113a.05.05 0 0 0-.003-.045a.07.07 0 0 0-.04-.035l-.152-.057l-.024-.04l.035-.136a.06.06 0 0 0-.011-.046a.07.07 0 0 0-.042-.03l-.148-.025l-.03-.036l.006-.15a.07.07 0 0 0-.02-.047a.06.06 0 0 0-.043-.022l-.137.007l-.034-.032l-.024-.16a.07.07 0 0 0-.027-.045a.05.05 0 0 0-.043-.012l-.124.038l-.037-.026l-.053-.164a.1.1 0 0 0-.033-.042a.04.04 0 0 0-.041-.003l-.104.068l-.04-.018l-.08-.163a.07.07 0 0 0-.038-.037a.034.034 0 0 0-.038.006l-.08.097l-.037-.012l-.104-.153a.07.07 0 0 0-.041-.03a.03.03 0 0 0-.033.014l-.053.12l-.037-.004l-.124-.137a.07.07 0 0 0-.043-.022a.03.03 0 0 0-.027.023l-.025.14l-.033.004l-.137-.12a.05.05 0 0 0-.043-.014a.03.03 0 0 0-.02.031l.006.155l-.03.012l-.148-.096a.04.04 0 0 0-.042-.005a.034.034 0 0 0-.011.037l.034.162l-.024.02l-.152-.069a.034.034 0 0 0-.04.004a.04.04 0 0 0-.002.042l.062.164l-.017.027l-.15-.037a.03.03 0 0 0-.035.013a.05.05 0 0 0 .005.045l.089.16l-.011.032l-.143-.005a.03.03 0 0 0-.028.022a.07.07 0 0 0 .014.047l.112.15l-.004.036l-.13.027a.03.03 0 0 0-.021.03a.07.07 0 0 0 .021.046l.13.134l.004.039l-.112.058a.03.03 0 0 0-.014.035a.07.07 0 0 0 .028.045l.143.111l.01.041l-.088.087a.04.04 0 0 0-.005.041a.1.1 0 0 0 .034.041l.15.086l.018.041l-.062.113a.05.05 0 0 0 .003.045a.07.07 0 0 0 .039.035l.152.057l.024.039l-.034.137a.06.06 0 0 0 .011.046a.07.07 0 0 0 .042.03l.148.025l.03.036l-.006.15a.07.07 0 0 0 .02.047a.06.06 0 0 0 .043.022l.137-.007l.033.032l.025.16a.07.07 0 0 0 .027.046a.05.05 0 0 0 .043.013l.123-.039l.037.026l.053.165a.1.1 0 0 0 .033.041a.04.04 0 0 0 .041.004l.104-.069l.038.02l.08.162a.07.07 0 0 0 .037.037a.034.034 0 0 0 .038-.005l.08-.097l.038.011l.104.154a.07.07 0 0 0 .04.03a.03.03 0 0 0 .033-.014l.054-.12l.037.004l.124.136a.07.07 0 0 0 .043.023a.03.03 0 0 0 .026-.023l.025-.137l.033-.004l.137.12a.05.05 0 0 0 .043.014a.03.03 0 0 0 .02-.031l-.005-.155l.03-.012l.148.096a.04.04 0 0 0 .041.005a.034.034 0 0 0 .012-.037l-.035-.162l.024-.02l.153.069a.03.03 0 0 0 .038-.004a.04.04 0 0 0 .004-.042l-.063-.164l.018-.027l.15.037a.03.03 0 0 0 .034-.013a.05.05 0 0 0-.004-.045l-.09-.16l.012-.032l.142.005a.03.03 0 0 0 .028-.022a.07.07 0 0 0-.014-.047l-.111-.15l.003-.036l.13-.027a.03.03 0 0 0 .021-.03a.07.07 0 0 0-.017-.052m-.868.72a.14.14 0 0 1-.069-.136c.01-.045.06-.057.109-.026a.14.14 0 0 1 .068.137c-.01.043-.058.056-.108.026m-.044-.316c-.045-.028-.09-.018-.1.024l-.045.196a1.1 1.1 0 0 1-.466-.09a1.7 1.7 0 0 1-.479-.3l-.046-.234a.14.14 0 0 0-.099-.105l-.19-.036q-.052-.076-.097-.156l.923.377c.01.004.017.006.017-.004v-.326q0-.014-.017-.019l-.27-.11v-.205l.292.12a.32.32 0 0 1 .18.229c.012.05.037.208.055.263a.4.4 0 0 0 .163.227l.46.188l.016.005a1 1 0 0 1-.104.08zm-1.277-.229a.15.15 0 0 1-.109-.115c-.01-.054.021-.09.068-.08a.16.16 0 0 1 .11.114c.012.055-.02.09-.07.081m-.35-1.563c.02.054 0 .1-.047.102a.14.14 0 0 1-.121-.097c-.02-.055 0-.1.046-.102a.14.14 0 0 1 .121.097m-.107.211l.198-.007c.042 0 .061-.043.042-.093l-.041-.109l.16.069v.721l-.323-.132a1.4 1.4 0 0 1-.043-.327a1 1 0 0 1 .008-.123zm.867.284v-.212l.381.156c.02.008.137.08.137.169c0 .074-.092.063-.167.032l-.354-.145zm1.385.758v.083l-.115-.047q-.017-.007-.017.012v.054c0 .125-.068.123-.132.105a.21.21 0 0 1-.133-.115a.65.65 0 0 0-.184-.385c.113-.026.232-.084.232-.226a.6.6 0 0 0-.177-.371a.8.8 0 0 0-.243-.18l-1.199-.49a.78.78 0 0 1 .632-.098l.142.205c.032.046.085.068.118.051l.158-.087a2 2 0 0 1 .773.867l-.108.2a.12.12 0 0 0 .043.128l.205.178q.007.06.007.116zm-1.196-1.727c.037-.02.094.004.13.056s.033.108 0 .128s-.094-.005-.13-.056s-.036-.107 0-.128m1.074 1.303c.02-.039.074-.037.12 0a.13.13 0 0 1 .047.14c-.02.038-.074.037-.12 0a.13.13 0 0 1-.047-.138z" opacity=".56"/><path d="m29.952 22.183l-.118-.027v-.035l.101-.142a.07.07 0 0 0 .013-.044a.024.024 0 0 0-.025-.02l-.13.003l-.01-.03l.08-.152a.05.05 0 0 0 .005-.043a.03.03 0 0 0-.03-.013l-.137.035l-.02-.027l.057-.157a.04.04 0 0 0 0-.04a.03.03 0 0 0-.035-.004l-.137.065l-.022-.019l.032-.155a.03.03 0 0 0-.01-.036a.034.034 0 0 0-.039.005l-.137.091l-.026-.011l.004-.148a.03.03 0 0 0-.017-.029a.05.05 0 0 0-.04.014l-.126.113l-.03-.004l-.023-.137a.025.025 0 0 0-.025-.022a.06.06 0 0 0-.039.022l-.112.132l-.033.004l-.05-.115a.025.025 0 0 0-.03-.014a.07.07 0 0 0-.037.028l-.094.147l-.034.01l-.074-.092a.03.03 0 0 0-.034-.005a.07.07 0 0 0-.034.035l-.073.154l-.034.018l-.095-.068a.03.03 0 0 0-.037 0a.07.07 0 0 0-.03.04l-.049.155l-.034.025l-.112-.037a.04.04 0 0 0-.039.012a.07.07 0 0 0-.024.043l-.023.152l-.03.03l-.127-.007a.06.06 0 0 0-.04.02a.07.07 0 0 0-.017.045l.005.143l-.027.034l-.137.024a.07.07 0 0 0-.038.027a.06.06 0 0 0-.01.045l.03.128l-.021.036l-.137.055a.07.07 0 0 0-.035.033a.05.05 0 0 0 0 .042l.057.108l-.016.039l-.137.081a.07.07 0 0 0-.03.04a.04.04 0 0 0 .004.038l.081.084l-.01.04l-.13.105a.07.07 0 0 0-.025.043a.03.03 0 0 0 .012.034l.102.056v.038l-.118.126a.07.07 0 0 0-.02.045a.03.03 0 0 0 .02.028l.118.026v.035l-.102.143a.07.07 0 0 0-.012.044a.024.024 0 0 0 .025.02l.13-.004l.01.031l-.08.152a.05.05 0 0 0-.006.043a.03.03 0 0 0 .031.012l.137-.034l.016.025l-.064.169a.04.04 0 0 0 0 .04a.03.03 0 0 0 .035.004l.137-.065l.022.019l-.032.155a.03.03 0 0 0 .011.035a.034.034 0 0 0 .039-.005l.136-.09l.027.01l-.005.148a.03.03 0 0 0 .018.03a.05.05 0 0 0 .04-.014l.126-.114l.03.004l.023.137a.024.024 0 0 0 .024.022a.06.06 0 0 0 .04-.021l.112-.133l.033-.004l.049.115a.025.025 0 0 0 .03.014a.07.07 0 0 0 .037-.029l.095-.146l.034-.011l.073.092a.03.03 0 0 0 .034.006a.07.07 0 0 0 .035-.035l.073-.155l.034-.018l.094.068a.03.03 0 0 0 .038 0a.07.07 0 0 0 .03-.04l.049-.155l.033-.025l.112.037a.04.04 0 0 0 .04-.012a.07.07 0 0 0 .024-.043l.026-.163l.03-.03l.127.007a.06.06 0 0 0 .04-.02a.07.07 0 0 0 .017-.045l-.005-.143l.027-.034l.137-.024a.07.07 0 0 0 .038-.027a.06.06 0 0 0 .011-.045l-.031-.128l.021-.037l.137-.054a.07.07 0 0 0 .035-.033a.05.05 0 0 0 0-.042l-.057-.108l.016-.039l.137-.081a.07.07 0 0 0 .03-.04a.04.04 0 0 0-.003-.035l-.081-.083l.01-.04l.13-.106a.07.07 0 0 0 .025-.042a.03.03 0 0 0-.013-.035l-.1-.056v-.037l.117-.127a.07.07 0 0 0 .019-.044a.03.03 0 0 0-.013-.029m-.789 1.36c-.045.009-.074-.026-.064-.077a.14.14 0 0 1 .1-.11c.044-.008.073.026.063.077a.14.14 0 0 1-.1.11zm-.04-.267a.13.13 0 0 0-.09.1l-.042.222a1.6 1.6 0 0 1-.423.274a.96.96 0 0 1-.433.084l-.041-.187c-.01-.039-.05-.049-.09-.022l-.173.112a1 1 0 0 1-.09-.073l.84-.356q.015-.005.015-.018v-.311q0-.012-.015-.004l-.246.104v-.197l.265-.113a.11.11 0 0 1 .164.079c.01.039.033.17.05.205s.08.117.147.089l.418-.178l.015-.008a2 2 0 0 1-.095.157zm-1.163.773c-.045.03-.09.018-.099-.025a.14.14 0 0 1 .064-.132c.045-.03.09-.017.1.026a.14.14 0 0 1-.062.131zm-.318-1.217a.12.12 0 0 1-.042.137c-.043.038-.092.038-.11 0a.12.12 0 0 1 .042-.137c.044-.035.094-.036.113 0zm-.098.285l.18-.16a.11.11 0 0 0 .04-.122l-.038-.072l.146-.062v.684l-.294.125a1 1 0 0 1-.039-.278q.003-.058.008-.115zm.788-.402v-.205l.346-.147c.018-.008.127-.032.127.053c0 .068-.084.13-.152.16l-.321.136zm1.259-.353v.08l-.106.045a.03.03 0 0 0-.015.025v.05a.21.21 0 0 1-.12.206c-.053.03-.113.024-.12-.007c-.032-.173-.085-.19-.168-.224a.7.7 0 0 0 .21-.395a.205.205 0 0 0-.16-.215a.4.4 0 0 0-.22.017l-1.086.462a1.85 1.85 0 0 1 .574-.583l.129.086c.028.02.077 0 .107-.043l.144-.205a.64.64 0 0 1 .702.226l-.098.273c-.017.048 0 .088.039.09l.19.007v.105zm-1.088-.714c.033-.047.086-.068.117-.047s.031.077 0 .125s-.086.069-.117.047s-.031-.078.002-.126zm.976.41a.13.13 0 0 1 .11-.09c.042 0 .06.045.042.097a.13.13 0 0 1-.11.09c-.04-.003-.059-.047-.04-.1z" opacity=".55"/><g transform="translate(10.911 9.376)scale(.68399) matrix(0 -.029 .022 .013 4.314 16.786)"><use href="#SVGI4zKqe1F"/><use href="#SVGBkqrYbhp"/></g><g transform="translate(10.911 9.376)scale(.68399) matrix(0 -.029 .022 .013 8.876 18.632)"><use href="#SVGI4zKqe1F"/><use href="#SVGBkqrYbhp"/></g><g transform="translate(10.911 9.376)scale(.68399) matrix(0 -.029 .022 .013 10.451 11.138)"><use href="#SVGI4zKqe1F"/><use href="#SVGBkqrYbhp"/></g><g transform="translate(10.911 9.376)scale(.68399) matrix(0 -.029 .022 .013 15.013 12.984)"><use href="#SVGI4zKqe1F"/><use href="#SVGBkqrYbhp"/></g><g transform="translate(10.911 9.376)scale(.68399) matrix(0 -.029 .02 -.012 16.773 21.54)"><use href="#SVGI4zKqe1F"/><use href="#SVGBkqrYbhp"/></g><g transform="translate(10.911 9.376)scale(.68399) matrix(0 -.029 .02 -.012 21.389 19.694)"><use href="#SVGI4zKqe1F"/><use href="#SVGBkqrYbhp"/></g><g transform="translate(10.911 9.376)scale(.68399) matrix(0 -.029 .02 -.012 23.072 11.167)"><use href="#SVGI4zKqe1F"/><use href="#SVGBkqrYbhp"/></g><g transform="translate(10.911 9.376)scale(.68399) matrix(0 -.029 .02 -.012 27.689 9.321)"><use href="#SVGI4zKqe1F"/><use href="#SVGBkqrYbhp"/></g></svg>
