<svg xmlns="http://www.w3.org/2000/svg" width="32" height="32" viewBox="0 0 32 32"><path fill="#295575" d="M27.417 5.5H18.19l-2.083 4.2H4.5v16.8h25v-21Zm0 4.2h-8.135l1.091-2.1h7.044Z"/><path fill="#478cbf" d="M28.69 24.02v1.18a.27.27 0 0 1-.186.256l-1.857.6a.26.26 0 0 1-.24-.038a.27.27 0 0 1-.11-.214v-1.286l-1.742.331v1.308a.27.27 0 0 1-.232.265l-2.518.345h-.036a.267.267 0 0 1-.27-.267v-1.388l-1.299.006h-.19l-1.3-.006V26.5a.27.27 0 0 1-.268.269h-.037l-2.518-.345a.27.27 0 0 1-.231-.265v-1.313l-1.742-.332V25.8a.27.27 0 0 1-.11.214a.26.26 0 0 1-.24.039l-1.857-.6a.27.27 0 0 1-.185-.256v-1.176l-1.149-.387a3.3 3.3 0 0 0-.088.743c0 3.084 4.344 5.465 9.714 5.482h.013c5.37-.017 9.715-2.397 9.715-5.482a3.2 3.2 0 0 0-.072-.678z"/><path fill="#478cbf" d="M11.222 18.552v4.805l.648.219a.27.27 0 0 1 .182.253v1.179l1.325.429V24.19a.27.27 0 0 1 .318-.264l2.278.435a.27.27 0 0 1 .218.263v1.299l1.982.27v-1.35a.267.267 0 0 1 .269-.267l1.662.006l1.661-.006a.267.267 0 0 1 .27.267v1.35l1.982-.27v-1.3a.266.266 0 0 1 .214-.262l2.278-.435a.27.27 0 0 1 .319.263v1.244l1.325-.429V23.83a.27.27 0 0 1 .182-.254l.441-.148v-4.875h.012A19 19 0 0 0 30 16.808a13.6 13.6 0 0 0-1.792-2.349a18 18 0 0 0-1.78 1.035a9 9 0 0 0-.913-.752a11 11 0 0 0-.982-.638a20 20 0 0 0 .165-2.194a11.4 11.4 0 0 0-2.665-.91a19 19 0 0 0-.99 1.929a7 7 0 0 0-1.037-.083h-.013a7 7 0 0 0-1.038.083a19 19 0 0 0-.99-1.929a11.4 11.4 0 0 0-2.664.91a20 20 0 0 0 .166 2.194a11 11 0 0 0-.983.639a9 9 0 0 0-.913.75a18 18 0 0 0-1.779-1.034A13.6 13.6 0 0 0 10 16.808a19 19 0 0 0 1.21 1.745z"/><path fill="#fff" d="M17.472 20.857a1.956 1.956 0 1 1-1.957-1.956a1.956 1.956 0 0 1 1.957 1.956"/><path fill="#414042" d="M17 20.974a1.3 1.3 0 1 1-1.3-1.299a1.3 1.3 0 0 1 1.3 1.3"/><path fill="#fff" d="M20.118 22.993a.603.603 0 0 1-.63-.571v-1.803a.633.633 0 0 1 1.26 0v1.802a.604.604 0 0 1-.63.571m2.647-2.135a1.956 1.956 0 1 0 1.957-1.956a1.956 1.956 0 0 0-1.957 1.956"/><path fill="#414042" d="M23.236 20.974a1.299 1.299 0 1 0 1.298-1.299a1.3 1.3 0 0 0-1.298 1.3"/></svg>
