<svg xmlns="http://www.w3.org/2000/svg" width="32" height="32" viewBox="0 0 32 32"><path fill="#4c6d8a" d="M27.417 5.5H18.19l-2.083 4.2H4.5v16.8h25v-21Zm0 4.2h-8.135l1.091-2.1h7.044Z"/><path fill="#66c3fa" d="M20.6 10a.94.94 0 0 0-.655.27l-.01.006l-6.135 3.547l6.119 6.118v.005l7.357 7.357l1.402-2.526l-5.058-12.14l-2.357-2.358a.93.93 0 0 0-.662-.277z"/><path fill="#215896" d="m13.822 13.795l-3.545 6.13l-.007.009a.94.94 0 0 0-.27.656a.93.93 0 0 0 .277.66l2.937 2.938l11.49 4.52l2.596-1.444l-.071-.071h-.018l-7.202-7.214H20z"/><path fill="#235997" d="m13.78 13.804l6.26 6.266h.01l7.205 7.214l2.742-.522l.003-8.117l-2.895-2.838a4.66 4.66 0 0 0-2.589-1.154v-.032z"/><path fill="#58b6f0" d="m13.826 13.839l6.263 6.262v.01l7.208 7.208l-.524 2.743H18.66l-2.837-2.898a4.66 4.66 0 0 1-1.153-2.589h-.031z"/></svg>
