<svg xmlns="http://www.w3.org/2000/svg" width="32" height="32" viewBox="0 0 32 32"><defs><filter id="SVG4022te6D" width="38.868" height="42.756" x="-19.618" y="12.903" color-interpolation-filters="sRGB" filterUnits="userSpaceOnUse"><feGaussianBlur stdDeviation="2.46"/></filter><filter id="SVGfWehPcwe" width="84.353" height="85.162" x="-15.122" y="-40.03" color-interpolation-filters="sRGB" filterUnits="userSpaceOnUse"><feGaussianBlur stdDeviation="11.891"/></filter><filter id="SVGOVrG7dor" width="78.916" height="90.22" x="-20.768" y="11.483" color-interpolation-filters="sRGB" filterUnits="userSpaceOnUse"><feGaussianBlur stdDeviation="10.109"/></filter><filter id="SVGZfuD4bKL" width="74.611" height="73.27" x="29.156" y="-11.658" color-interpolation-filters="sRGB" filterUnits="userSpaceOnUse"><feGaussianBlur stdDeviation="9.606"/></filter><filter id="SVGZWZ8re1E" width="77.538" height="78.151" x="-38.291" y="-16.269" color-interpolation-filters="sRGB" filterUnits="userSpaceOnUse"><feGaussianBlur stdDeviation="8.706"/></filter><filter id="SVG5frwbcHz" width="78.218" height="76.898" x="7.78" y="-6.098" color-interpolation-filters="sRGB" filterUnits="userSpaceOnUse"><feGaussianBlur stdDeviation="7.775"/></filter><filter id="SVGQLeO6cNv" width="55.879" height="51.479" x="13.208" y="-18.425" color-interpolation-filters="sRGB" filterUnits="userSpaceOnUse"><feGaussianBlur stdDeviation="6.957"/></filter><filter id="SVG0Tg9pchZ" width="70.203" height="68.674" x="-15.474" y="-31.027" color-interpolation-filters="sRGB" filterUnits="userSpaceOnUse"><feGaussianBlur stdDeviation="5.876"/></filter><filter id="SVG2faIRbvE" width="55.137" height="51.261" x="-14.173" y="20.474" color-interpolation-filters="sRGB" filterUnits="userSpaceOnUse"><feGaussianBlur stdDeviation="7.273"/></filter><path id="SVG8iAahc8M" fill="#fff" d="M57.067 28.61q-7.396-3.184-12.945-8.732q-5.547-5.546-8.732-12.944a38.4 38.4 0 0 1-1.97-5.824A1.464 1.464 0 0 0 32 .001c-.671 0-1.255.458-1.419 1.11a38.4 38.4 0 0 1-1.971 5.823q-3.186 7.397-8.732 12.944q-5.548 5.548-12.945 8.732a38.4 38.4 0 0 1-5.824 1.972A1.464 1.464 0 0 0 0 32c0 .67.458 1.255 1.11 1.418a38.4 38.4 0 0 1 5.823 1.972q7.396 3.184 12.945 8.732q5.55 5.546 8.732 12.944a38.4 38.4 0 0 1 1.971 5.824c.164.65.749 1.11 1.419 1.11s1.255-.458 1.419-1.11a38.4 38.4 0 0 1 1.971-5.823q3.185-7.395 8.732-12.944q5.548-5.548 12.945-8.732a38.4 38.4 0 0 1 5.824-1.972A1.464 1.464 0 0 0 64 32.001c0-.672-.458-1.255-1.11-1.42a38.4 38.4 0 0 1-5.823-1.97"/><mask id="SVGrwDDMAfw" width="64" height="64" x="0" y="0" maskUnits="userSpaceOnUse"><use href="#SVG8iAahc8M"/></mask></defs><path fill="#7aa1dc" d="M27.4 5.5h-9.2l-2.1 4.2H4.3v4H.5l3.8 12.8h25.2v-21Zm-7.2 2.1h7.1v2.1h-8.1Zm5.5 6.1H6.6v-1.9h20.8v7.626Z"/><g fill="none" stroke-width="2.538" mask="url(#SVGrwDDMAfw)" transform="translate(8.97 8.253)scale(.3448)"><use href="#SVG8iAahc8M"/><g filter="url(#SVG4022te6D)"><ellipse cx="14.208" cy="16.716" fill="#ffe432" rx="14.208" ry="16.716" transform="rotate(19.552 -43.96 -16.268)"/></g><g filter="url(#SVGfWehPcwe)"><ellipse cx="27.054" cy="2.551" fill="#fc413d" rx="18.394" ry="18.799"/></g><g fill="#00b95c" filter="url(#SVGOVrG7dor)"><ellipse cx="19.224" cy="24.904" rx="19.224" ry="24.904" transform="rotate(-2.799 667.58 51.694)"/><ellipse cx="18.843" cy="20.744" rx="18.843" ry="20.744" transform="rotate(-31.317 81.174 36.482)"/></g><g filter="url(#SVGZfuD4bKL)"><ellipse cx="66.462" cy="24.977" fill="#3186ff" rx="18.093" ry="17.423"/></g><g filter="url(#SVGZWZ8re1E)"><ellipse cx="20.929" cy="22.075" fill="#fbbc04" rx="20.929" ry="22.075" transform="rotate(37.251 9.618 -7.898)"/></g><g filter="url(#SVG5frwbcHz)"><ellipse cx="24.131" cy="22.292" fill="#3186ff" rx="24.131" ry="22.292" transform="rotate(34.51 19.317 63.957)"/></g><g filter="url(#SVGQLeO6cNv)"><path fill="#749bff" d="M54.226-2.304c2.794 3.799-.797 11.184-8.02 16.497c-7.222 5.312-15.342 6.539-18.136 2.74S28.866 5.75 36.09.436c7.223-5.312 15.343-6.539 18.136-2.74"/></g><g filter="url(#SVG0Tg9pchZ)"><ellipse cx="27.585" cy="17.148" fill="#fc413d" rx="27.585" ry="17.148" transform="rotate(-42.847 5.973 20.37)"/></g><g filter="url(#SVG2faIRbvE)"><ellipse cx="14.782" cy="8.596" fill="#ffee48" rx="14.782" ry="8.596" transform="rotate(35.592 -44.338 25.191)"/></g></g></svg>
