<svg xmlns="http://www.w3.org/2000/svg" width="32" height="32" viewBox="0 0 32 32"><defs><linearGradient id="SVGEDDnMbnv" x1=".85" x2="62.62" y1="62.72" y2="1.81" gradientUnits="userSpaceOnUse"><stop offset="0" stop-color="#ff9419"/><stop offset=".43" stop-color="#ff021d"/><stop offset=".99" stop-color="#e600ff"/></linearGradient></defs><path fill="#bfb755" d="M27.5 5.5h-9.3l-2.1 4.2H4.4v16.8h25.2v-21Zm0 4.2h-8.2l1.1-2.1h7.1Z"/><path fill="url(#SVGEDDnMbnv)" d="M20.34 3.66L3.66 20.34A12.5 12.5 0 0 0 0 29.18V59c0 2.76 2.24 5 5 5h29.82c3.32 0 6.49-1.32 8.84-3.66l16.68-16.68c2.34-2.34 3.66-5.52 3.66-8.84V5c0-2.76-2.24-5-5-5H29.18c-3.32 0-6.49 1.32-8.84 3.66" transform="translate(10 10)scale(.3125)"/><path d="M25 15H12.5v12.5H25z"/><path fill="#fff" d="M19.375 24.688h-5.312v1.25h5.312z"/></svg>
